<?xml version="1.0" standalone="no"?>
<!DOCTYPE svg PUBLIC "-//W3C//DTD SVG 20010904//EN"
 "http://www.w3.org/TR/2001/REC-SVG-20010904/DTD/svg10.dtd">
<svg version="1.0" xmlns="http://www.w3.org/2000/svg"
 width="179.000000pt" height="355.000000pt" viewBox="0 0 179.000000 355.000000"
 preserveAspectRatio="xMidYMid meet">

<g transform="translate(0.000000,355.000000) scale(0.100000,-0.100000)"
fill="#000000" stroke="none">
<path d="M945 3477 c4 -37 1 -49 -11 -54 -15 -5 -15 -7 0 -15 11 -6 16 -22 15
-51 0 -35 -2 -38 -9 -19 -10 24 -17 26 -39 13 -10 -7 -19 -4 -27 7 -11 15 -13
15 -28 0 -14 -15 -14 -18 4 -40 15 -18 19 -20 20 -7 0 20 27 33 34 16 3 -9 5
-9 5 1 1 6 6 12 13 12 6 0 4 -8 -6 -19 -13 -15 -14 -21 -5 -27 7 -4 15 -2 17
4 6 18 32 15 32 -4 0 -9 -5 -12 -12 -8 -9 6 -9 3 0 -9 8 -9 11 -21 7 -27 -4
-6 -2 -17 4 -23 13 -17 17 -79 6 -96 -6 -10 -4 -12 5 -6 10 6 12 4 7 -8 -3 -9
-2 -19 3 -22 16 -10 11 -28 -5 -21 -8 3 -15 1 -15 -5 0 -6 9 -13 20 -16 23 -6
26 -23 8 -41 -9 -9 -8 -12 5 -12 9 0 17 -6 17 -12 0 -7 -11 -13 -24 -13 -17 0
-22 4 -18 15 3 8 2 12 -2 8 -9 -8 -74 18 -98 39 -10 9 -26 13 -40 10 -28 -8
-43 1 -52 31 -5 15 -3 22 6 22 9 0 10 2 2 8 -7 4 -18 29 -26 55 l-14 48 -74
-125 c-41 -69 -78 -122 -82 -118 -17 17 -69 218 -80 309 -7 51 -14 91 -16 89
-9 -10 -43 -190 -52 -276 -11 -102 -13 -264 -4 -345 4 -38 2 -46 -6 -35 -8 11
-10 -46 -8 -212 2 -126 0 -228 -4 -228 -15 0 -58 51 -58 69 0 10 -9 26 -20 36
-12 11 -20 13 -20 6 0 -7 -4 -9 -10 -6 -15 9 -12 39 11 105 11 33 18 66 16 73
-3 7 -6 5 -6 -5 -1 -9 -10 -20 -21 -23 -11 -3 -20 -13 -20 -21 0 -8 -4 -14
-10 -14 -5 0 -10 -4 -10 -10 0 -5 7 -10 15 -10 16 0 20 -16 6 -24 -8 -5 -91
94 -91 108 0 3 8 2 18 -1 15 -6 15 -5 3 11 -10 12 -16 14 -21 5 -10 -16 -46 5
-53 30 -7 26 35 65 63 58 11 -3 23 -1 26 4 3 5 17 9 32 10 l27 0 -23 16 c-12
8 -22 22 -22 31 0 13 -2 13 -18 -1 -10 -10 -25 -17 -33 -17 -8 0 -25 -7 -37
-16 -33 -23 -27 -1 10 35 26 26 29 31 13 31 -10 0 -37 -20 -59 -44 -39 -41
-42 -43 -64 -28 -28 19 -41 8 -19 -16 22 -24 21 -30 -5 -52 l-23 -19 24 6 c21
5 23 4 16 -13 -12 -27 -12 -88 0 -92 6 -1 11 8 13 20 9 73 22 86 29 27 1 -16
10 -42 19 -57 14 -26 15 -24 9 38 l-5 65 30 -30 c16 -17 31 -43 32 -58 1 -15
6 -27 10 -27 8 0 17 -19 33 -69 5 -16 4 -21 -4 -17 -7 4 -11 -1 -11 -13 0 -12
-5 -21 -11 -21 -8 0 -10 12 -6 33 8 52 -9 69 -22 21 -25 -98 -25 -94 3 -94 30
0 30 0 14 -35 -14 -31 -16 -31 -69 0 -24 14 -47 25 -51 25 -3 0 4 -28 18 -62
27 -70 29 -89 12 -106 -9 -9 -7 -12 9 -12 17 0 26 -14 47 -71 31 -83 30 -79
11 -79 -10 0 -15 -10 -15 -30 0 -27 -2 -30 -19 -20 -27 14 -30 13 -28 -11 2
-27 49 -51 88 -45 24 3 29 1 25 -10 -4 -11 0 -13 18 -8 30 7 41 -9 21 -30 -11
-11 -12 -17 -3 -22 6 -4 13 -3 15 3 4 12 69 -10 88 -29 7 -8 6 -9 -2 -4 -6 3
-23 2 -38 -4 -21 -8 -33 -5 -66 16 -39 24 -40 26 -22 40 17 13 15 14 -19 12
-28 -2 -48 5 -83 30 -25 18 -48 32 -50 32 -2 0 4 -15 15 -32 10 -18 24 -62 29
-98 14 -85 45 -183 60 -188 21 -7 33 -42 20 -58 -9 -12 -8 -32 6 -99 10 -47
21 -85 26 -85 5 0 9 -18 9 -39 0 -21 7 -72 15 -112 14 -75 16 -85 36 -216 7
-40 16 -73 21 -73 5 0 8 -16 6 -36 -2 -30 3 -41 27 -60 16 -13 38 -22 48 -21
23 2 25 -8 28 -116 1 -62 5 -80 19 -87 11 -6 16 -17 13 -32 -3 -14 8 -47 26
-82 17 -32 31 -66 31 -77 0 -10 11 -26 25 -35 14 -9 25 -24 25 -33 0 -10 6
-26 14 -37 14 -19 15 -18 69 9 30 15 57 27 60 27 4 0 7 -23 7 -50 0 -36 4 -52
15 -56 8 -4 15 -12 15 -19 0 -7 29 -40 65 -73 36 -33 65 -63 65 -67 0 -5 8
-16 18 -25 16 -16 19 -15 53 14 20 17 52 43 71 58 20 15 35 35 34 44 -2 23 32
44 43 26 6 -10 14 -7 37 10 42 32 72 65 77 85 7 26 25 111 32 157 6 37 6 39
-12 26 -17 -14 -17 -13 1 7 24 28 71 254 55 264 -8 4 -8 9 -1 13 6 3 16 38 23
77 12 70 14 72 60 101 l48 29 27 117 c14 64 48 211 75 326 54 232 56 244 34
252 -19 8 -4 29 35 49 20 10 42 50 98 178 40 90 72 169 72 176 0 6 -7 11 -16
11 -13 0 -15 7 -10 43 l6 42 -50 2 c-43 1 -50 -1 -50 -17 0 -11 -9 -24 -19
-30 -31 -16 -37 -12 -14 9 12 11 29 41 39 66 16 43 16 48 1 81 -10 21 -24 34
-35 34 -33 0 -85 -23 -110 -47 -26 -26 -33 -28 -52 -10 -8 6 -6 2 4 -10 29
-35 17 -58 -29 -58 -22 0 -50 6 -63 14 -12 7 -33 14 -45 15 -19 1 -22 6 -20
45 1 23 9 54 18 68 21 32 89 63 140 63 43 0 130 -23 150 -40 17 -14 65 -2 65
17 0 8 -11 58 -24 111 -13 53 -26 108 -30 123 -4 20 0 28 23 42 37 21 42 11
35 -70 -5 -55 -4 -57 10 -33 8 14 15 42 16 63 0 20 4 37 9 37 14 0 24 -39 23
-89 0 -33 3 -40 11 -32 14 14 16 108 3 135 -8 16 -6 17 15 11 21 -7 22 -6 10
9 -7 9 -20 16 -28 16 -11 0 -10 8 7 35 24 38 17 44 -19 18 -23 -16 -25 -15
-50 14 -27 32 -60 53 -83 53 -7 0 3 -14 22 -29 35 -30 38 -51 3 -32 -10 5 -25
12 -33 14 -8 3 -21 26 -28 53 -19 71 -74 245 -77 242 -3 -3 -13 -138 -15 -188
-2 -47 -50 68 -50 119 0 65 -28 295 -39 325 -15 37 -71 123 -71 108 0 -7 4
-21 9 -30 8 -16 16 -50 27 -127 3 -16 7 -41 10 -54 3 -15 -1 -28 -13 -37 -17
-14 -17 -14 1 -12 14 2 19 -4 22 -29 2 -18 -1 -33 -6 -33 -6 0 -10 9 -10 19 0
10 -7 22 -16 25 -10 4 -13 2 -8 -6 5 -8 2 -9 -9 -5 -9 3 -18 3 -21 -1 -8 -14
14 -52 29 -52 9 0 13 -4 10 -10 -3 -5 -1 -10 4 -10 6 0 11 7 11 15 0 22 15 18
17 -4 1 -11 -6 -21 -19 -24 -11 -3 -18 -10 -15 -14 3 -5 2 -15 -4 -23 -5 -9
-9 -10 -9 -3 0 6 -8 9 -19 6 -27 -7 -25 -62 2 -85 17 -16 18 -18 3 -18 -22 0
-31 -26 -16 -45 10 -11 9 -18 -5 -31 -24 -24 -17 -96 10 -100 11 -2 23 2 27 9
6 9 8 9 8 0 0 -6 -4 -15 -10 -18 -5 -3 -10 -11 -10 -17 0 -7 5 -6 14 1 10 8
16 9 21 1 3 -5 -1 -10 -9 -10 -10 0 -13 -6 -10 -15 4 -8 1 -15 -6 -15 -6 0 -9
4 -6 9 7 10 -32 47 -40 38 -4 -3 1 -13 10 -22 19 -20 20 -26 3 -19 -8 3 -14
-1 -14 -8 0 -8 14 -13 41 -13 l40 0 4 58 c4 59 2 62 -40 58 -24 -3 -23 14 2
39 25 25 26 34 3 25 -13 -4 -15 -3 -7 5 14 14 47 1 40 -16 -3 -8 -1 -14 4 -14
6 0 10 14 10 30 0 17 -4 30 -9 30 -12 0 -8 53 5 57 18 6 22 -68 10 -181 -8
-76 -7 -101 2 -104 7 -2 27 -25 44 -50 l32 -47 -44 36 c-25 20 -52 39 -60 43
-8 5 -1 -3 16 -17 31 -26 90 -105 83 -111 -2 -2 -14 -7 -26 -10 -22 -7 -47 14
-25 22 15 5 16 32 2 32 -5 0 -10 -8 -10 -17 -1 -14 -6 -11 -25 12 -30 36 -33
25 -4 -16 23 -32 22 -64 -1 -64 -8 0 -23 -9 -32 -20 -22 -25 -23 -13 -3 25 16
30 12 72 -8 98 -6 8 -6 12 2 12 6 0 11 5 11 10 0 6 -6 10 -13 10 -7 0 -27 15
-45 33 l-31 32 9 105 c6 58 12 119 15 137 4 25 -2 43 -29 86 -69 108 -146 258
-206 404 -77 184 -80 190 -75 130z m-75 -131 c0 -3 -4 -8 -10 -11 -5 -3 -10
-1 -10 4 0 6 5 11 10 11 6 0 10 -2 10 -4z m447 -288 c-3 -8 -6 -5 -6 6 -1 11
2 17 5 13 3 -3 4 -12 1 -19z m-478 -51 c-2 -1 -13 -9 -24 -17 -19 -14 -19 -14
-6 3 7 9 18 17 24 17 6 0 8 -1 6 -3z m15 -41 c17 -6 16 -8 -5 -27 -13 -11 -17
-17 -9 -13 13 7 13 6 0 -12 -7 -10 -21 -25 -29 -32 -13 -11 -12 -14 7 -28 30
-21 28 -36 -3 -24 -17 6 -27 6 -32 -3 -11 -19 -21 34 -11 67 6 23 5 27 -5 17
-12 -12 -13 -15 -15 -60 -2 -24 -2 -24 -17 -5 -13 18 -14 17 -15 -18 0 -24 -5
-38 -12 -38 -7 0 20 -16 61 -36 47 -23 76 -32 80 -26 4 7 23 8 56 3 l50 -9
-40 -2 -40 -2 32 -9 c21 -6 30 -14 27 -23 -4 -10 5 -16 25 -21 31 -7 35 -13
31 -50 -4 -45 -68 -69 -101 -39 -11 9 -19 13 -19 7 0 -26 41 -47 87 -44 46 2
46 2 25 -16 -28 -23 -44 -76 -29 -93 9 -8 3 -18 -23 -40 -19 -16 -30 -30 -23
-30 18 0 4 -30 -14 -30 -9 0 -12 6 -8 19 4 15 -1 19 -33 24 -43 7 -85 35 -64
44 7 2 19 11 26 19 9 8 16 10 18 3 2 -5 25 -12 51 -14 41 -3 47 -1 47 15 0 24
-20 36 -31 19 -7 -11 -9 -11 -9 2 0 9 -9 19 -19 22 -14 3 -18 1 -14 -9 3 -9
-1 -14 -12 -14 -11 0 -15 5 -12 14 4 10 -1 13 -16 10 -12 -2 -16 -1 -9 2 9 4
-1 13 -29 25 -23 11 -44 17 -47 14 -3 -3 0 -5 8 -5 7 0 2 -13 -14 -35 -14 -19
-26 -38 -25 -42 1 -4 -2 -33 -6 -63 -6 -40 -10 -49 -15 -35 -4 11 -6 23 -3 28
2 4 -3 10 -11 13 -9 3 -16 10 -16 16 0 5 6 6 13 2 9 -6 9 -4 -1 8 -13 16 -47
14 -58 -3 -3 -5 -13 -9 -22 -9 -14 1 -14 2 3 12 11 6 21 12 23 13 1 1 -4 17
-12 36 -19 45 -11 119 13 119 9 0 33 -9 54 -20 47 -25 54 -25 53 3 -1 15 5 23
20 25 44 6 99 94 67 106 -21 8 -25 7 -18 -4 3 -5 1 -10 -4 -10 -6 0 -11 -10
-11 -23 0 -27 -17 -47 -41 -47 -26 0 -32 16 -24 66 6 42 8 44 33 38 26 -6 26
-6 7 9 -12 10 -15 16 -7 17 21 0 5 17 -21 22 -23 4 -24 2 -25 -56 0 -36 -5
-62 -12 -64 -7 -3 -5 -11 6 -23 23 -25 13 -33 -38 -31 -51 2 -54 5 -34 34 9
12 16 33 16 46 0 19 4 22 20 17 14 -5 20 -2 20 10 0 9 -4 13 -10 10 -17 -10
-11 18 11 55 15 24 23 55 24 95 1 33 3 63 4 66 1 7 76 30 88 28 16 -4 43 13
36 24 -3 5 -2 8 3 5 5 -3 17 -8 28 -12z m506 -25 c0 -31 -3 -39 -17 -37 -20 3
-28 22 -14 31 6 3 11 15 11 26 0 10 5 19 10 19 6 0 10 -18 10 -39z m-357 -15
c53 -20 138 -75 145 -94 2 -7 -5 -12 -16 -12 -12 0 -37 -19 -57 -42 -21 -24
-32 -33 -26 -21 14 28 14 31 -6 37 -12 3 -9 5 7 4 42 -1 45 1 24 16 -17 13
-22 12 -46 -12 -32 -30 -36 -49 -10 -55 9 -3 2 -5 -15 -6 -37 -1 -40 6 -18 35
18 24 19 34 1 34 -8 0 -23 -13 -33 -30 -20 -34 -34 -40 -26 -10 6 24 -9 26
-31 5 -25 -25 -31 -17 -7 9 13 13 33 27 44 30 12 3 31 18 41 33 19 26 19 26
-6 48 -13 11 -23 26 -20 33 2 7 -1 12 -8 12 -6 0 -8 5 -4 11 4 6 9 7 13 2 3
-5 27 -17 54 -27z m-108 -2 c8 -4 23 -20 31 -36 19 -37 10 -49 -52 -73 -35
-13 -51 -15 -67 -6 -20 10 -20 10 6 5 30 -7 67 14 46 26 -8 6 -8 9 0 14 6 4
11 2 11 -3 0 -6 7 -11 16 -11 9 0 12 5 8 12 -5 8 -2 9 9 5 10 -3 17 -2 17 3 0
6 -5 10 -11 10 -6 0 -8 7 -5 16 3 8 2 13 -2 10 -4 -3 -13 4 -20 15 -13 21 -12
22 13 13z m425 -96 c0 -6 -6 -5 -15 2 -8 7 -15 14 -15 16 0 2 7 1 15 -2 8 -4
15 -11 15 -16z m-490 -52 c0 -2 -9 -2 -20 1 -11 3 -20 9 -20 15 0 5 9 4 20 -2
11 -6 20 -12 20 -14z m358 -91 c6 2 12 0 12 -5 0 -6 -4 -10 -9 -10 -5 0 -12
-18 -16 -40 -5 -31 -2 -48 14 -76 12 -19 21 -44 21 -55 0 -10 3 -19 8 -19 4 0
5 -24 4 -54 -3 -49 -6 -54 -31 -59 -35 -7 -93 -65 -120 -120 -25 -51 -41 -59
-91 -42 -34 11 -34 12 -31 66 3 60 19 107 45 128 12 10 10 1 -8 -39 -14 -30
-23 -57 -20 -61 6 -11 84 32 95 53 5 9 16 23 24 32 18 18 57 153 61 211 1 25
-4 49 -15 65 -24 35 -32 60 -24 73 8 12 8 16 12 52 1 12 12 -4 29 -42 17 -39
32 -61 40 -58z m437 -25 c19 -21 14 -50 -10 -50 -14 0 -35 37 -35 61 0 16 26
10 45 -11z m-605 -60 c-6 -11 -13 -20 -16 -20 -2 0 0 9 6 20 6 11 13 20 16 20
2 0 0 -9 -6 -20z m411 -37 c13 -16 12 -17 -3 -4 -10 7 -18 15 -18 17 0 8 8 3
21 -13z m98 -92 c-2 -6 -10 2 -17 17 -11 25 -11 25 4 10 9 -9 15 -21 13 -27z
m-739 13 c0 -9 -7 -14 -17 -12 -25 5 -28 28 -4 28 12 0 21 -6 21 -16z m44
-129 c18 -14 18 -15 -3 -47 -16 -24 -21 -27 -16 -10 4 13 2 22 -4 22 -6 0 -13
-11 -17 -25 -8 -34 -29 -26 -29 11 0 22 5 29 20 29 13 0 19 7 19 18 -2 20 5
21 30 2z m-540 -32 c-10 -7 -32 -12 -48 -11 l-31 1 32 4 c21 3 37 12 45 26 8
16 13 18 16 8 3 -8 -3 -20 -14 -28z m-37 -75 c-3 -8 -6 -5 -6 6 -1 11 2 17 5
13 3 -3 4 -12 1 -19z m143 18 c0 -3 -4 -8 -10 -11 -5 -3 -10 -1 -10 4 0 6 5
11 10 11 6 0 10 -2 10 -4z m521 -9 c-1 -4 -1 -43 -1 -87 0 -62 -3 -80 -14 -80
-17 0 -18 71 -2 82 8 5 7 8 -1 8 -7 0 -21 -19 -31 -41 -12 -26 -22 -37 -27
-30 -5 9 -10 9 -21 0 -21 -18 -30 -2 -11 19 23 25 9 37 -16 15 -18 -17 -19
-17 -15 7 3 25 6 25 51 12 13 -3 20 2 24 17 4 17 10 20 27 15 20 -6 20 -5 -3
15 -22 19 -22 21 -5 22 10 1 22 1 25 1 4 -1 4 8 1 20 -3 14 -1 19 7 17 7 -3
12 -8 12 -12z m289 -1 c0 -17 -27 -29 -35 -16 -4 6 -3 15 0 20 9 15 35 12 35
-4z m-430 -6 c0 -5 -5 -10 -11 -10 -5 0 -7 5 -4 10 3 6 8 10 11 10 2 0 4 -4 4
-10z m376 -15 c-3 -9 -10 -13 -16 -10 -6 4 -5 11 3 20 15 16 22 11 13 -10z
m-856 -9 c0 -9 -30 -14 -35 -6 -4 6 3 10 14 10 12 0 21 -2 21 -4z m909 -28 c0
-13 -3 -17 -6 -10 -2 6 -9 10 -14 7 -5 -4 -6 1 -3 9 9 24 24 19 23 -6z m-946
-23 c28 -58 24 -68 -25 -60 -24 4 -44 8 -46 10 -4 3 42 85 49 85 3 0 13 -16
22 -35z m902 27 c-5 -4 -17 -16 -25 -26 -13 -18 -13 -19 1 -14 12 5 14 0 11
-24 -4 -27 -8 -29 -34 -26 -31 5 -25 -8 7 -14 16 -3 19 -11 17 -38 -3 -43 -21
-100 -30 -98 -4 1 -15 -2 -25 -7 -10 -4 -21 -5 -24 -1 -4 3 2 6 13 6 16 0 17
2 4 10 -23 15 -30 12 -30 -13 0 -24 -34 -48 -73 -52 -21 -2 -58 -35 -39 -35 7
0 12 5 12 12 0 6 2 9 5 6 3 -3 3 -12 -1 -21 -5 -14 -9 -14 -40 3 -19 11 -35
17 -35 15 -5 -20 -7 -27 -8 -45 -1 -15 -8 -20 -29 -20 -30 0 -72 25 -72 42 0
7 9 2 20 -10 31 -33 48 -27 75 30 27 55 27 69 1 43 -16 -17 -56 -12 -56 6 0
20 41 49 70 49 16 0 30 5 30 10 0 6 4 10 10 10 5 0 9 -3 9 -7 -3 -20 2 -36 9
-29 4 4 7 11 7 14 0 4 4 13 8 20 6 8 1 12 -17 12 -14 0 -26 5 -26 10 0 19 37
10 64 -15 26 -24 66 -34 66 -16 0 5 -14 14 -31 22 -30 12 -30 13 -13 26 11 8
30 11 49 8 l30 -6 -25 13 c-19 11 -25 22 -25 48 0 34 1 35 35 32 32 -2 37 1
54 38 14 28 25 40 40 40 12 0 17 -4 11 -8z m191 -113 c81 -49 83 -50 66 -56
-6 -3 -9 -9 -6 -15 4 -6 1 -9 -7 -6 -8 3 -26 -3 -41 -14 -19 -13 -33 -16 -44
-10 -13 7 -10 14 22 41 38 30 38 31 12 29 -15 -1 -25 -6 -22 -10 9 -14 -30
-27 -49 -16 -14 7 -24 5 -38 -8 -20 -18 -20 -17 -9 10 12 33 4 52 -16 35 -11
-9 -14 -8 -14 7 0 16 42 47 71 53 4 0 38 -18 75 -40z m-1166 -14 c0 -19 36
-41 79 -50 l33 -7 -4 42 -4 43 26 -32 c17 -19 31 -55 39 -96 7 -36 17 -65 22
-65 20 0 7 -18 -24 -35 -30 -16 -36 -16 -62 -2 l-29 15 32 7 c18 3 32 11 32
16 0 6 -9 8 -19 4 -17 -5 -18 -2 -11 30 7 33 6 37 -20 50 -21 11 -36 12 -54 5
-24 -9 -26 -7 -36 31 -6 22 -14 47 -17 56 -4 11 -2 14 5 9 7 -4 12 -14 12 -21z
m161 8 c13 -16 12 -17 -3 -4 -10 7 -18 15 -18 17 0 8 8 3 21 -13z m109 -18 c0
-12 -19 -12 -23 0 -4 9 -1 12 9 8 7 -3 14 -7 14 -8z m-48 -29 c10 6 11 4 0 -7
-10 -11 -15 -10 -30 6 -15 17 -15 18 0 6 9 -7 23 -9 30 -5z m1055 8 c-3 -3
-12 -4 -19 -1 -8 3 -5 6 6 6 11 1 17 -2 13 -5z m-607 -36 c-19 -12 -41 -21
-47 -20 -7 2 -13 -2 -13 -8 0 -6 -7 -6 -19 2 -26 16 -17 28 22 29 18 0 41 4
52 9 38 16 40 10 5 -12z m-290 -19 c6 -11 9 -25 6 -32 -2 -7 -8 -2 -11 11 -10
31 -30 28 -32 -5 -1 -16 1 -22 4 -15 8 19 23 14 23 -8 0 -11 -4 -20 -10 -20
-5 0 -10 -7 -10 -15 0 -23 19 -18 30 8 l9 22 0 -22 c1 -22 -2 -25 -30 -27 -19
-2 -40 83 -26 105 15 25 34 24 47 -2z m824 6 c-4 -8 -11 -15 -16 -15 -6 0 -5
6 2 15 7 8 14 15 16 15 2 0 1 -7 -2 -15z m71 -6 c10 -30 2 -32 -12 -3 -6 13
-7 24 -3 24 5 0 12 -9 15 -21z m-32 -63 c4 -10 1 -13 -9 -9 -7 3 -14 9 -14 14
0 14 17 10 23 -5z m-990 -80 c-21 -22 -39 -43 -40 -45 -2 -2 -6 -1 -10 2 -3 4
2 17 13 29 10 12 13 18 5 13 -16 -9 -7 27 16 64 l16 25 19 -24 19 -23 -38 -41z
m591 1 c1 -7 5 -18 9 -24 5 -7 4 -13 -2 -13 -9 0 -16 16 -27 65 -5 19 -4 19 7
2 6 -11 12 -24 13 -30z m463 17 c-3 -3 -12 -4 -19 -1 -8 3 -5 6 6 6 11 1 17
-2 13 -5z m-927 -31 c0 -8 -5 -11 -11 -8 -5 4 -24 1 -41 -6 -25 -10 -31 -10
-39 2 -14 23 -11 25 41 26 37 1 50 -3 50 -14z m808 5 c9 -9 -1 -16 -46 -30
-31 -10 -59 -18 -62 -18 -5 0 83 58 91 59 3 1 10 -4 17 -11z m-1048 -18 c-8
-5 -19 -10 -25 -10 -5 0 -3 5 5 10 8 5 20 10 25 10 6 0 3 -5 -5 -10z m469 -4
l23 -13 -22 -6 c-30 -8 -57 2 -38 15 9 7 7 8 -10 5 -12 -3 -20 -1 -16 4 7 13
35 11 63 -5z m221 5 c0 -9 -24 -21 -41 -21 -6 0 -7 5 -4 10 4 6 11 8 16 5 5
-4 9 -1 9 4 0 6 5 11 10 11 6 0 10 -4 10 -9z m-408 -56 c4 -5 4 -13 2 -17 -3
-4 3 -5 12 -1 12 4 15 3 10 -5 -4 -7 -1 -12 8 -12 8 0 16 3 19 8 2 4 2 1 1 -5
-2 -8 7 -13 24 -14 l27 -1 -28 -10 c-34 -12 -87 6 -87 31 0 9 -8 28 -17 41
-17 24 -17 25 2 10 11 -8 23 -19 27 -25z m281 26 c4 -1 7 -6 7 -11 0 -6 -11
-8 -25 -4 -15 4 -25 2 -25 -5 0 -6 -6 -8 -14 -5 -25 10 -7 33 22 29 15 -2 30
-4 35 -4z m466 -2 c-17 -11 -52 -12 -46 -1 3 4 17 8 33 9 19 1 23 -1 13 -8z
m-919 -24 c-6 -8 -9 -18 -6 -24 9 -13 46 -1 46 15 0 20 16 17 24 -3 3 -10 9
-24 12 -31 4 -9 0 -10 -20 -2 -42 16 -30 -5 14 -25 22 -10 38 -21 35 -24 -7
-7 -165 71 -165 82 0 4 9 7 19 7 11 0 23 5 26 10 3 6 11 10 17 10 7 0 6 -5 -2
-15z m460 -19 c0 -2 -9 -2 -20 1 -11 3 -20 3 -20 -1 0 -7 101 -53 137 -62 26
-7 26 -7 5 -15 -15 -6 -38 -1 -74 15 -29 12 -66 28 -83 35 l-29 13 24 18 c18
13 29 16 42 9 10 -5 18 -11 18 -13z m360 14 c-8 -5 -22 -9 -30 -9 -10 0 -8 3
5 9 27 12 43 12 25 0z m-116 -17 c-24 -12 -42 -13 -70 -7 l-39 8 60 6 c33 4
65 7 70 8 6 0 -4 -6 -21 -15z m-214 -13 c0 -5 -5 -10 -11 -10 -5 0 -7 5 -4 10
3 6 8 10 11 10 2 0 4 -4 4 -10z m420 -714 c0 -3 -4 -8 -10 -11 -5 -3 -10 -1
-10 4 0 6 5 11 10 11 6 0 10 -2 10 -4z"/>
<path d="M868 2667 c7 -8 7 -18 2 -27 -6 -8 -10 -21 -10 -27 0 -24 16 -13 30
20 7 17 15 35 18 40 2 4 -9 7 -23 7 -21 0 -25 -3 -17 -13z"/>
<path d="M795 2600 c-3 -5 -1 -10 4 -10 6 0 11 5 11 10 0 6 -2 10 -4 10 -3 0
-8 -4 -11 -10z"/>
<path d="M830 2596 c0 -8 5 -18 10 -21 6 -3 10 1 10 9 0 8 -4 18 -10 21 -5 3
-10 -1 -10 -9z"/>
<path d="M989 2843 c-13 -16 -12 -17 4 -4 9 7 17 15 17 17 0 8 -8 3 -21 -13z"/>
<path d="M1070 2830 c0 -5 7 -10 15 -10 8 0 15 5 15 10 0 6 -7 10 -15 10 -8 0
-15 -4 -15 -10z"/>
<path d="M973 2276 c-17 -20 -4 -55 23 -62 45 -12 58 17 24 54 -24 25 -30 26
-47 8z"/>
<path d="M1038 2263 c7 -3 16 -2 19 1 4 3 -2 6 -13 5 -11 0 -14 -3 -6 -6z"/>
<path d="M955 1990 c-3 -5 1 -10 10 -10 9 0 13 5 10 10 -3 6 -8 10 -10 10 -2
0 -7 -4 -10 -10z"/>
<path d="M784 3208 c0 -12 4 -14 10 -8 6 6 20 10 32 10 13 0 25 4 28 8 2 4
-12 8 -32 7 -29 0 -38 -4 -38 -17z"/>
<path d="M860 3180 c-13 -8 -12 -10 3 -10 9 0 17 5 17 10 0 12 -1 12 -20 0z"/>
<path d="M1310 3160 c-13 -8 -12 -10 3 -10 9 0 17 5 17 10 0 12 -1 12 -20 0z"/>
<path d="M385 3150 c-3 -5 -1 -10 4 -10 6 0 11 5 11 10 0 6 -2 10 -4 10 -3 0
-8 -4 -11 -10z"/>
<path d="M1280 3130 c0 -5 7 -10 15 -10 8 0 15 5 15 10 0 6 -7 10 -15 10 -8 0
-15 -4 -15 -10z"/>
<path d="M835 3120 c-3 -5 1 -10 9 -10 9 0 16 5 16 10 0 6 -4 10 -9 10 -6 0
-13 -4 -16 -10z"/>
<path d="M889 3111 c16 -10 0 -23 -32 -25 -23 -1 -37 -26 -15 -26 8 0 23 7 34
15 21 16 38 20 30 6 -3 -4 3 -16 14 -26 11 -10 20 -15 20 -10 0 4 -8 14 -17
21 -17 13 -17 13 0 14 23 0 22 17 -2 30 -25 13 -53 14 -32 1z"/>
<path d="M340 3041 c0 -5 5 -13 10 -16 6 -3 10 -2 10 4 0 5 -4 13 -10 16 -5 3
-10 2 -10 -4z"/>
<path d="M900 3030 c0 -5 5 -10 10 -10 6 0 10 5 10 10 0 6 -4 10 -10 10 -5 0
-10 -4 -10 -10z"/>
<path d="M955 3030 c3 -5 11 -10 16 -10 6 0 7 5 4 10 -3 6 -11 10 -16 10 -6 0
-7 -4 -4 -10z"/>
<path d="M1287 3001 c-3 -12 -1 -21 3 -21 15 0 23 21 12 32 -6 6 -11 2 -15
-11z"/>
<path d="M250 2802 c0 -12 19 -26 26 -19 2 2 -2 10 -11 17 -9 8 -15 8 -15 2z"/>
<path d="M422 2760 c0 -14 2 -19 5 -12 2 6 2 18 0 25 -3 6 -5 1 -5 -13z"/>
<path d="M1330 2750 c0 -5 5 -10 10 -10 6 0 10 5 10 10 0 6 -4 10 -10 10 -5 0
-10 -4 -10 -10z"/>
<path d="M350 2700 c0 -5 5 -10 11 -10 5 0 7 5 4 10 -3 6 -8 10 -11 10 -2 0
-4 -4 -4 -10z"/>
<path d="M207 2618 c-9 -31 -2 -33 11 -3 6 14 8 25 3 25 -5 0 -11 -10 -14 -22z"/>
<path d="M1680 2290 c-8 -5 -11 -12 -8 -16 4 -3 14 1 23 10 18 17 9 21 -15 6z"/>
<path d="M1744 2269 c-3 -6 -17 -8 -30 -5 -17 5 -26 2 -30 -9 -4 -8 -11 -15
-18 -15 -6 0 -11 -18 -11 -44 0 -43 1 -44 32 -48 22 -3 34 1 38 11 4 9 2 17
-4 19 -5 2 1 19 15 39 13 20 24 42 24 49 0 17 -6 18 -16 3z"/>
</g>
</svg>
